<svg xmlns="http://www.w3.org/2000/svg" xmlns:xlink="http://www.w3.org/1999/xlink" width="18" height="18" viewBox="0 0 18 18">
  <defs>
    <clipPath id="clip-path">
      <rect id="Rectangle_392" data-name="Rectangle 392" width="18" height="18" transform="translate(0 0.344)" fill="#b2adad"/>
    </clipPath>
  </defs>
  <g id="Group_388" data-name="Group 388" transform="translate(-0.364 -0.812)">
    <g id="Group_387" data-name="Group 387" transform="translate(0.364 0.468)" clip-path="url(#clip-path)">
      <path id="Path_623" data-name="Path 623" d="M64.177,2.787,61.81.42h0c-.156-.156-.372,0-.592,0h0c-.219,0-.437-.155-.592,0L51.751,9.3l-.592,4.142,4.142-.592,8.876-8.876a.851.851,0,0,0,0-1.183" transform="translate(-45.833 -0.42)" fill="#b2adad"/>
      <path id="Path_624" data-name="Path 624" d="M15.158,35.853H1.548V22.835H8.057V21.059H.956c-.44,0-.592.744-.592,1.183V37.036c0,.44.152.592.592.592H15.749c.44,0,.592-.152.592-.592V29.344H15.158Z" transform="translate(-0.364 -19.284)" fill="#b2adad"/>
      <rect id="Rectangle_391" data-name="Rectangle 391" width="7" transform="translate(5 15.344)" fill="#b2adad"/>
    </g>
  </g>
</svg>
