<svg xmlns="http://www.w3.org/2000/svg" xmlns:xlink="http://www.w3.org/1999/xlink" width="49" height="49" viewBox="0 0 49 49">
  <defs>
    <clipPath id="clip-path">
      <rect id="Rectangle_393" data-name="Rectangle 393" width="32.958" height="29" fill="#7342dc"/>
    </clipPath>
  </defs>
  <g id="Group_391" data-name="Group 391" transform="translate(-1152 -424)">
    <g id="Ellipse_1" data-name="Ellipse 1" transform="translate(1152 424)" fill="#fff" stroke="#707070" stroke-width="1">
      <circle cx="24.5" cy="24.5" r="24.5" stroke="none"/>
      <circle cx="24.5" cy="24.5" r="24" fill="none"/>
    </g>
    <g id="Group_390" data-name="Group 390" transform="translate(1160 434)">
      <g id="Group_389" data-name="Group 389" transform="translate(0 0)" clip-path="url(#clip-path)">
        <path id="Path_625" data-name="Path 625" d="M24.955,8.864a2.193,2.193,0,0,0-2.065,0L18.071,11.7,14.8,13.51l-4.733,2.84A2.193,2.193,0,0,1,8,16.35L4.3,14.113A2.1,2.1,0,0,1,3.27,12.306V8A2.123,2.123,0,0,1,4.3,6.2L8,4.045a2.193,2.193,0,0,1,2.065,0l3.7,2.237A2.1,2.1,0,0,1,14.8,8.089v2.84l3.27-1.893V6.11A2.123,2.123,0,0,0,17.039,4.3L10.154.258a2.193,2.193,0,0,0-2.065,0L1.033,4.389A1.893,1.893,0,0,0,0,6.11V14.2a2.123,2.123,0,0,0,1.033,1.807L8,20.05a2.193,2.193,0,0,0,2.065,0L14.8,17.3l3.27-1.893L22.8,12.65a2.193,2.193,0,0,1,2.065,0l3.7,2.151A2.1,2.1,0,0,1,29.6,16.608v4.3a2.123,2.123,0,0,1-1.033,1.807l-3.614,2.151a2.193,2.193,0,0,1-2.065,0l-3.7-2.151a2.1,2.1,0,0,1-1.033-1.807V18.157l-3.27,1.893v2.84A2.123,2.123,0,0,0,15.92,24.7l6.97,4.045a2.193,2.193,0,0,0,2.065,0l6.97-4.045a2.1,2.1,0,0,0,1.033-1.807V14.715a2.123,2.123,0,0,0-1.033-1.807Z" transform="translate(0 0)" fill="#7342dc"/>
      </g>
    </g>
  </g>
</svg>
